<?xml version="1.0" encoding="utf-8"?><svg xmlns="http://www.w3.org/2000/svg" xmlns:xlink="http://www.w3.org/1999/xlink"><symbol viewBox="0 0 33 32" id="alert" xmlns="http://www.w3.org/2000/svg">
    <path d="M18.1879 6.05617L28.4371 23.2602C29.1555 24.4723 28.2274 25.9688 26.7485 25.9688H6.25001C4.77111 25.9688 3.84298 24.4723 4.56134 23.2602L14.8106 6.05617C15.5488 4.81461 17.4496 4.81461 18.1879 6.05617Z" stroke-width="1.5" stroke-linecap="round" stroke-linejoin="round"/>
    <path d="M16.5 17.8125V13.2812" stroke-width="1.5" stroke-linecap="round" stroke-linejoin="round"/>
    <path d="M16.5 22.5312C17.0523 22.5312 17.5 22.0835 17.5 21.5312C17.5 20.979 17.0523 20.5312 16.5 20.5312C15.9477 20.5312 15.5 20.979 15.5 21.5312C15.5 22.0835 15.9477 22.5312 16.5 22.5312Z"/>
</symbol><symbol viewBox="0 0 25 24" id="arrow" xmlns="http://www.w3.org/2000/svg">
    <path d="M20.916 12H4.41602" stroke-width="2" stroke-linecap="round" stroke-linejoin="round"/>
    <path d="M11.166 5.25L4.41602 12L11.166 18.75" stroke-width="2" stroke-linecap="round" stroke-linejoin="round"/>
</symbol><symbol viewBox="0 0 16 16" id="arrow-back" xmlns="http://www.w3.org/2000/svg">
    <path d="M10 3L5 8L10 13" stroke-width="2" stroke-linecap="round" stroke-linejoin="round"/>
</symbol><symbol viewBox="0 0 20 21" id="arrow-diagonal" xmlns="http://www.w3.org/2000/svg">
    <g clip-path="url(#acclip0_2822_22752)">
        <path d="M5 15.5L15 5.5" stroke-width="2" stroke-linecap="round" stroke-linejoin="round"/>
        <path d="M6.875 5.5H15V13.625" stroke-width="2" stroke-linecap="round" stroke-linejoin="round"/>
    </g>
    <defs>
        <clipPath id="acclip0_2822_22752">
            <rect width="20" height="20" transform="translate(0 0.5)"/>
        </clipPath>
    </defs>
</symbol><symbol viewBox="0 0 17 16" id="arrow-small" xmlns="http://www.w3.org/2000/svg">
    <path d="M13.1338 6L8.13379 11L3.13379 6" stroke-width="2" stroke-linecap="round" stroke-linejoin="round"/>
</symbol><symbol viewBox="0 0 7 11" id="arrow-small-xs" xmlns="http://www.w3.org/2000/svg">
    <path d="M0.666064 11C0.600396 11.0001 0.535362 10.9871 0.474698 10.962C0.414033 10.9369 0.358934 10.9 0.312564 10.8535C0.266106 10.8071 0.22925 10.752 0.204104 10.6913C0.178958 10.6307 0.166016 10.5656 0.166016 10.5C0.166016 10.4343 0.178958 10.3693 0.204104 10.3086C0.22925 10.248 0.266106 10.1929 0.312564 10.1465L4.95906 5.49998L0.312564 0.853484C0.117189 0.658109 0.117189 0.341734 0.312564 0.146484C0.507939 -0.0487656 0.824314 -0.0488906 1.01956 0.146484L6.01956 5.14648C6.06602 5.19289 6.10288 5.24799 6.12802 5.30865C6.15317 5.3693 6.16611 5.43432 6.16611 5.49998C6.16611 5.56565 6.15317 5.63066 6.12802 5.69132C6.10288 5.75198 6.06602 5.80708 6.01956 5.85348L1.01956 10.8535C0.973195 10.9 0.918096 10.9369 0.857431 10.962C0.796766 10.9871 0.731732 11.0001 0.666064 11Z"/>
</symbol><symbol viewBox="0 0 24 24" id="burger" xmlns="http://www.w3.org/2000/svg">
    <path fill-rule="evenodd" clip-rule="evenodd" d="M2 5.09091C2 4.48842 2.49746 4 3.11111 4H20.8889C21.5025 4 22 4.48842 22 5.09091C22 5.6934 21.5025 6.18182 20.8889 6.18182H3.11111C2.49746 6.18182 2 5.6934 2 5.09091ZM2 12C2 11.3975 2.49746 10.9091 3.11111 10.9091H20.8889C21.5025 10.9091 22 11.3975 22 12C22 12.6025 21.5025 13.0909 20.8889 13.0909H3.11111C2.49746 13.0909 2 12.6025 2 12ZM3.11111 17.8182C2.49746 17.8182 2 18.3066 2 18.9091C2 19.5116 2.49746 20 3.11111 20H20.8889C21.5025 20 22 19.5116 22 18.9091C22 18.3066 21.5025 17.8182 20.8889 17.8182H3.11111Z"/>
</symbol><symbol viewBox="0 0 17 16" id="check" xmlns="http://www.w3.org/2000/svg">
    <path fill-rule="evenodd" clip-rule="evenodd" d="M14.6888 3.76577C14.7553 3.82397 14.8095 3.89482 14.8484 3.97418C14.8873 4.05354 14.9099 4.13984 14.9152 4.22805C14.9204 4.31626 14.908 4.40463 14.8787 4.48801C14.8495 4.5714 14.804 4.64814 14.7448 4.71377L7.73546 12.4931C7.67601 12.559 7.604 12.6123 7.52366 12.65C7.44332 12.6877 7.35626 12.709 7.26759 12.7126C7.17892 12.7162 7.09043 12.702 7.0073 12.671C6.92416 12.6399 6.84806 12.5926 6.78346 12.5318L2.72746 8.71377C2.60578 8.59758 2.53211 8.43998 2.521 8.27211C2.50989 8.10424 2.56215 7.9383 2.66746 7.8071C2.72431 7.73597 2.79501 7.67713 2.87529 7.63416C2.95557 7.59119 3.04374 7.56498 3.13445 7.55712C3.22517 7.54927 3.31653 7.55993 3.403 7.58846C3.48947 7.61699 3.56924 7.6628 3.63746 7.7231L6.78413 10.5538C6.91552 10.672 7.08849 10.7333 7.26501 10.724C7.44153 10.7148 7.60716 10.6358 7.72546 10.5044L13.7541 3.81977C13.8715 3.68966 14.0353 3.61098 14.2103 3.60075C14.3852 3.59052 14.5571 3.64956 14.6888 3.7651V3.76577Z"/>
</symbol><symbol viewBox="0 0 21 22" id="close" xmlns="http://www.w3.org/2000/svg">
    <path fill-rule="evenodd" clip-rule="evenodd" d="M18.8359 1.19305C19.2264 0.80252 19.8595 0.802511 20.2501 1.19303C20.6406 1.58355 20.6406 2.21671 20.2501 2.60724L11.8595 10.998L20.254 19.3928C20.6445 19.7833 20.6445 20.4165 20.254 20.807C19.8634 21.1975 19.2303 21.1975 18.8398 20.807L10.4453 12.4123L2.05087 20.807C1.66035 21.1975 1.02718 21.1975 0.636652 20.807C0.246123 20.4165 0.246115 19.7833 0.636633 19.3928L9.03112 10.998L0.640541 2.60724C0.250022 2.21671 0.25003 1.58355 0.64056 1.19303C1.03109 0.802511 1.66425 0.80252 2.05477 1.19305L10.4453 9.58381L18.8359 1.19305Z"/>
</symbol><symbol viewBox="0 0 16 16" id="empty-heart" xmlns="http://www.w3.org/2000/svg">
    <path d="M8.434 14.9343C8.196 15.0219 7.804 15.0219 7.566 14.9343C5.536 14.2112 1 11.1949 1 6.08258C1 3.82584 2.743 2 4.892 2C6.166 2 7.293 2.6427 8 3.63595C8.707 2.6427 9.841 2 11.108 2C13.257 2 15 3.82584 15 6.08258C15 11.1949 10.464 14.2112 8.434 14.9343Z" stroke-width="1.7" stroke-linecap="round" stroke-linejoin="round"/>
</symbol><symbol viewBox="0 0 33 33" id="eye" xmlns="http://www.w3.org/2000/svg">
    <path d="M16.1572 10.875C9.90723 10.875 7.40723 16.5 7.40723 16.5C7.40723 16.5 9.90723 22.125 16.1572 22.125C22.4072 22.125 24.9072 16.5 24.9072 16.5C24.9072 16.5 22.4072 10.875 16.1572 10.875Z" stroke-width="1.5" stroke-linecap="round" stroke-linejoin="round"/>
    <path d="M16.1572 19.625C17.8831 19.625 19.2822 18.2259 19.2822 16.5C19.2822 14.7741 17.8831 13.375 16.1572 13.375C14.4313 13.375 13.0322 14.7741 13.0322 16.5C13.0322 18.2259 14.4313 19.625 16.1572 19.625Z" stroke-width="1.5" stroke-linecap="round" stroke-linejoin="round"/>
</symbol><symbol viewBox="0 0 32 32" id="facebook" xmlns="http://www.w3.org/2000/svg">
    <path d="M12.1347 31.5879V20.9479H8.836V16.0586H12.1347V13.9519C12.1347 8.50526 14.5987 5.98126 19.9453 5.98126C20.48 5.98126 21.2187 6.03726 21.9027 6.11859C22.415 6.17131 22.9232 6.25817 23.424 6.37859V10.8119C23.1345 10.7849 22.8441 10.7689 22.5533 10.7639C22.2276 10.7555 21.9018 10.7515 21.576 10.7519C20.6333 10.7519 19.8973 10.8799 19.3427 11.1639C18.9698 11.351 18.6563 11.6382 18.4373 11.9933C18.0933 12.5533 17.9387 13.3199 17.9387 14.3293V16.0586H23.164L22.6493 18.8626L22.2667 20.9479H17.9387V31.9413C25.8613 30.9839 32 24.2386 32 16.0586C32 7.22259 24.836 0.0585938 16 0.0585938C7.164 0.0585938 0 7.22259 0 16.0586C0 23.5626 5.16533 29.8586 12.1347 31.5879Z"/>
</symbol><symbol viewBox="0 0 43 42" id="fire" xmlns="http://www.w3.org/2000/svg">
    <path d="M15.4274 35C11.1058 24.3773 20.237 20.4986 20.237 20.4986C19.5979 26.1671 23.9157 30.5831 23.9157 30.5831C25.5039 30.2255 28.5351 28.5551 28.5351 28.5551C28.5351 30.5831 26.9356 34.9972 26.9356 34.9972C26.9356 34.9972 32.5348 31.7677 34.2973 26.4036C36.0575 21.0394 30.9442 15.6543 30.9442 15.6543C31.252 19.4514 29.5309 23.1849 26.1575 26.0378C26.3267 25.8926 26.4678 25.7304 26.5766 25.556C27.1826 24.6518 28.1555 22.3019 27.5857 16.86C26.7842 9.22126 17.506 6 17.506 6C18.3055 10.6544 15.9076 11.7267 10.2904 20.5613C4.6732 29.3942 15.4274 35 15.4274 35Z"/>
    <defs>
        <linearGradient id="ampaint0_linear_650_956" x1="5.0548" y1="3.71052" x2="42.9784" y2="11.1771" gradientUnits="userSpaceOnUse">
            <stop stop-color="#F44336"/>
            <stop offset="1" stop-color="#FF4063"/>
        </linearGradient>
    </defs>
</symbol><symbol viewBox="0 0 43 42" id="game" xmlns="http://www.w3.org/2000/svg">
    <g clip-path="url(#anclip0_650_982)">
        <path d="M36.5956 26.7188C36.5962 26.7129 36.5962 26.7071 36.5956 26.7013L34.5469 16.18C34.5469 16.1725 34.5469 16.165 34.5469 16.1575C34.2306 14.4301 33.319 12.8681 31.9704 11.7431C30.6219 10.6182 28.9218 10.0014 27.1656 10H16.1519C14.3908 9.99932 12.6859 10.6196 11.337 11.7518C9.98808 12.884 9.08157 14.4555 8.77688 16.19L6.73813 26.7013C6.73753 26.7071 6.73753 26.7129 6.73813 26.7188C6.57218 27.661 6.71089 28.6317 7.13411 29.4898C7.55733 30.3479 8.24304 31.0487 9.09167 31.4906C9.94031 31.9325 10.9077 32.0924 11.8534 31.947C12.7991 31.8017 13.6738 31.3588 14.3506 30.6825L14.3944 30.6362L19.3556 25H23.9806L28.9444 30.6362C28.9581 30.6525 28.9731 30.6675 28.9881 30.6825C29.8316 31.5242 30.974 31.9979 32.1656 32C32.8225 31.9996 33.4713 31.8554 34.0664 31.5775C34.6616 31.2996 35.1887 30.8948 35.6108 30.3915C36.0329 29.8882 36.3396 29.2986 36.5095 28.6641C36.6795 28.0296 36.7084 27.3656 36.5944 26.7188H36.5956ZM18.6656 19H17.6656V20C17.6656 20.2652 17.5603 20.5196 17.3727 20.7071C17.1852 20.8946 16.9308 21 16.6656 21C16.4004 21 16.1461 20.8946 15.9585 20.7071C15.771 20.5196 15.6656 20.2652 15.6656 20V19H14.6656C14.4004 19 14.1461 18.8946 13.9585 18.7071C13.771 18.5196 13.6656 18.2652 13.6656 18C13.6656 17.7348 13.771 17.4804 13.9585 17.2929C14.1461 17.1054 14.4004 17 14.6656 17H15.6656V16C15.6656 15.7348 15.771 15.4804 15.9585 15.2929C16.1461 15.1054 16.4004 15 16.6656 15C16.9308 15 17.1852 15.1054 17.3727 15.2929C17.5603 15.4804 17.6656 15.7348 17.6656 16V17H18.6656C18.9308 17 19.1852 17.1054 19.3727 17.2929C19.5603 17.4804 19.6656 17.7348 19.6656 18C19.6656 18.2652 19.5603 18.5196 19.3727 18.7071C19.1852 18.8946 18.9308 19 18.6656 19ZM23.6656 18C23.6656 17.7348 23.771 17.4804 23.9585 17.2929C24.1461 17.1054 24.4004 17 24.6656 17H27.6656C27.9308 17 28.1852 17.1054 28.3727 17.2929C28.5603 17.4804 28.6656 17.7348 28.6656 18C28.6656 18.2652 28.5603 18.5196 28.3727 18.7071C28.1852 18.8946 27.9308 19 27.6656 19H24.6656C24.4004 19 24.1461 18.8946 23.9585 18.7071C23.771 18.5196 23.6656 18.2652 23.6656 18ZM34.2119 28.9338C34.0246 29.2034 33.7856 29.4332 33.5088 29.6098C33.232 29.7864 32.9229 29.9063 32.5994 29.9625C32.208 30.0309 31.806 30.0056 31.4264 29.8884C31.0468 29.7713 30.7004 29.5658 30.4156 29.2887L26.6406 25H27.1656C28.4423 25.0002 29.6979 24.6744 30.8135 24.0536C31.9291 23.4328 32.8678 22.5375 33.5406 21.4525L34.6331 27.0775C34.6888 27.3994 34.6802 27.7291 34.6079 28.0477C34.5356 28.3663 34.401 28.6674 34.2119 28.9338Z"/>
    </g>
    <defs>
        <linearGradient id="anpaint0_linear_650_982" x1="2.50414" y1="8.26316" x2="44.2093" y2="20.7491" gradientUnits="userSpaceOnUse">
            <stop offset="1" stop-color="#00D283"/>
            <stop stop-color="#00C2E3"/>
        </linearGradient>
        <clipPath id="anclip0_650_982">
            <rect width="32" height="32" transform="translate(5.66602 5)"/>
        </clipPath>
    </defs>
</symbol><symbol viewBox="0 0 16 16" id="guarantee" xmlns="http://www.w3.org/2000/svg">
    <path fill-rule="evenodd" clip-rule="evenodd" d="M3.0029 4.83013L7.22295 2.73466C7.46546 2.61424 7.73101 2.55172 8 2.55172C8.26899 2.55172 8.53454 2.61424 8.77705 2.73465L12.9971 4.83013C13.3045 4.98276 13.5 5.30421 13.5 5.65691V6.17241C13.5 9.18833 12.0145 11.9964 9.55893 13.6221L8.57312 14.2748C8.40203 14.3881 8.20314 14.4483 8 14.4483C7.79686 14.4483 7.59797 14.3881 7.42688 14.2748L6.44107 13.6221C3.98553 11.9964 2.5 9.18833 2.5 6.17241V5.65691C2.5 5.30421 2.69553 4.98276 3.0029 4.83013ZM6.57386 1.33574L2.3538 3.43122C1.52636 3.84209 1 4.70743 1 5.65691V6.17241C1 9.71744 2.74615 13.0181 5.63249 14.9291L6.6183 15.5818C7.03078 15.8549 7.51027 16 8 16C8.48973 16 8.96922 15.8549 9.3817 15.5818L10.3675 14.9291C13.2539 13.0181 15 9.71744 15 6.17241V5.65691C15 4.70743 14.4736 3.84209 13.6462 3.43122L9.42614 1.33574C8.98107 1.11474 8.49369 1 8 1C7.50631 1 7.01893 1.11474 6.57386 1.33574ZM11.1 6.63793C11.3485 6.29513 11.2814 5.80882 10.95 5.55172C10.6186 5.29463 10.1485 5.3641 9.9 5.7069L7.41885 9.12917L6.03033 7.69276C5.73744 7.38977 5.26256 7.38977 4.96967 7.69276C4.67678 7.99576 4.67678 8.487 4.96967 8.79L6.96967 10.859C7.12341 11.018 7.3363 11.1002 7.55317 11.0843C7.77004 11.0683 7.96955 10.9558 8.1 10.7759L11.1 6.63793Z"/>
</symbol><symbol viewBox="0 0 17 14" id="heart" xmlns="http://www.w3.org/2000/svg">
    <path d="M9.16202 13.9292C8.89002 14.0236 8.44202 14.0236 8.17002 13.9292C5.85002 13.1506 0.666016 9.90225 0.666016 4.39662C0.666016 1.96629 2.65802 0 5.11402 0C6.57002 0 7.85802 0.692134 8.66602 1.7618C9.47402 0.692134 10.77 0 12.218 0C14.674 0 16.666 1.96629 16.666 4.39662C16.666 9.90225 11.482 13.1506 9.16202 13.9292Z"/>
</symbol><symbol viewBox="0 0 16 16" id="info" xmlns="http://www.w3.org/2000/svg">
    <path fill-rule="evenodd" clip-rule="evenodd" d="M8 13.5C11.0376 13.5 13.5 11.0376 13.5 8C13.5 4.96243 11.0376 2.5 8 2.5C4.96243 2.5 2.5 4.96243 2.5 8C2.5 11.0376 4.96243 13.5 8 13.5ZM8 15C11.866 15 15 11.866 15 8C15 4.13401 11.866 1 8 1C4.13401 1 1 4.13401 1 8C1 11.866 4.13401 15 8 15ZM9 5.5C9 6.05228 8.55228 6.5 8 6.5C7.44772 6.5 7 6.05228 7 5.5C7 4.94772 7.44772 4.5 8 4.5C8.55228 4.5 9 4.94772 9 5.5ZM8.75 8.5C8.75 8.08579 8.41421 7.75 8 7.75C7.58579 7.75 7.25 8.08579 7.25 8.5V11C7.25 11.4142 7.58579 11.75 8 11.75C8.41421 11.75 8.75 11.4142 8.75 11V8.5Z"/>
</symbol><symbol viewBox="0 0 16 16" id="label" xmlns="http://www.w3.org/2000/svg">
    <path fill-rule="evenodd" clip-rule="evenodd" d="M13.1231 8.55869L8.4103 13.2666C8.03474 13.6417 7.4267 13.6445 7.04777 13.2727L2.74141 9.04761C2.36017 8.67357 2.35452 8.06165 2.72879 7.68065L7.43993 2.88473C7.71293 2.60682 8.08633 2.45024 8.47611 2.45024H12.5804C13.1149 2.45024 13.5483 2.88311 13.5483 3.41707V7.53321C13.5483 7.91784 13.3953 8.28672 13.1231 8.55869ZM6.40376 1.86897C6.94976 1.31315 7.69656 1 8.47611 1H12.5804C13.9167 1 15 2.08216 15 3.41707V7.53321C15 8.30247 14.6941 9.04022 14.1496 9.58417L9.43684 14.2921C8.49795 15.23 6.97783 15.2368 6.03053 14.3074L1.72416 10.0823C0.77107 9.14718 0.756948 7.6174 1.69261 6.6649L6.40376 1.86897ZM10.6448 6.31756C9.97662 6.31756 9.43498 5.77648 9.43498 5.10903C9.43498 4.44157 9.97662 3.90049 10.6448 3.90049C11.3129 3.90049 11.8546 4.44157 11.8546 5.10903C11.8546 5.77648 11.3129 6.31756 10.6448 6.31756Z"/>
</symbol><symbol viewBox="0 0 500 120" id="logo" xmlns="http://www.w3.org/2000/svg">
    <defs>
        <linearGradient id="ascyberGradient" x1="0%" y1="0%" x2="100%" y2="0%">
            <stop offset="0%" stop-color="#000000"/>
            <stop offset="100%" stop-color="#0d6efd"/>
        </linearGradient>
        <filter id="asneon" x="-50%" y="-50%" width="200%" height="200%">
            <feDropShadow dx="0" dy="0" stdDeviation="2" flood-color="#0d6efd"/>
            <feDropShadow dx="0" dy="0" stdDeviation="5" flood-color="#0d6efd"/>
        </filter>
    </defs>
    <rect width="100%" height="100%"/>
    <text x="50%" y="50%" dominant-baseline="middle" text-anchor="middle" font-family="Orbitron, sans-serif" font-size="60" filter="url(#asneon)" letter-spacing="8">
    CYBERCORE
  </text>
</symbol><symbol viewBox="0 0 20 19" id="many" xmlns="http://www.w3.org/2000/svg">
    <path d="M17 17.3984H3C1.89543 17.3984 1 16.503 1 15.3984V6.39844C1 5.29387 1.89543 4.39844 3 4.39844H17C18.1046 4.39844 19 5.29387 19 6.39844V15.3984C19 16.503 18.1046 17.3984 17 17.3984Z" stroke-width="2"/>
    <path d="M14.5 11.3984C14.2239 11.3984 14 11.1745 14 10.8984C14 10.6223 14.2239 10.3984 14.5 10.3984C14.7761 10.3984 15 10.6223 15 10.8984C15 11.1745 14.7761 11.3984 14.5 11.3984Z" stroke-width="1.5" stroke-linecap="round" stroke-linejoin="round"/>
    <path d="M16 4.39787V3.00109C16 1.68703 14.7544 0.730041 13.4847 1.06862L2.48467 4.00196C1.60917 4.23543 1 5.02833 1 5.93443V6.39787" stroke-width="2"/>
</symbol><symbol viewBox="0 0 20 20" id="message" xmlns="http://www.w3.org/2000/svg">
    <path fill-rule="evenodd" clip-rule="evenodd" d="M5.4903 14.2055L5.21232 17.5413C5.19815 17.7113 5.33234 17.8571 5.50297 17.8571C5.5744 17.8571 5.64335 17.8309 5.69674 17.7835L8.85308 14.9778L9.69505 14.9966C9.79607 14.9989 9.89772 15 10 15C12.4212 15 14.4097 14.3708 15.7433 13.3181C17.0134 12.3154 17.8571 10.8049 17.8571 8.57143C17.8571 6.33794 17.0134 4.82746 15.7433 3.82479C14.4097 2.77202 12.4212 2.14286 10 2.14286C7.57882 2.14286 5.59029 2.77202 4.25669 3.82479C2.98656 4.82746 2.14286 6.33794 2.14286 8.57143C2.14286 10.9253 3.0799 12.4892 4.49644 13.4978L5.4903 14.2055ZM7.12037 19.3851L9.64726 17.1389C9.76434 17.1416 9.88193 17.1429 10 17.1429C15.5228 17.1429 20 14.2857 20 8.57143C20 2.85714 15.5228 0 10 0C4.47715 0 0 2.85714 0 8.57143C0 11.5957 1.25408 13.8197 3.25353 15.2434L3.07687 17.3633C2.95859 18.7827 4.07868 20 5.50297 20C6.09922 20 6.67473 19.7812 7.12037 19.3851Z"/>
</symbol><symbol viewBox="0 0 32 33" id="no-eye" xmlns="http://www.w3.org/2000/svg">
    <path d="M9.75 9.625L22.25 23.375" stroke-width="1.5" stroke-linecap="round" stroke-linejoin="round"/>
    <path d="M18.1026 18.8125C17.4893 19.3701 16.6796 19.6612 15.8517 19.6218C15.0238 19.5824 14.2454 19.2157 13.6878 18.6023C13.1302 17.989 12.8391 17.1793 12.8785 16.3514C12.918 15.5235 13.2846 14.7451 13.898 14.1875" stroke-width="1.5" stroke-linecap="round" stroke-linejoin="round"/>
    <path d="M16.5879 13.4304C17.2523 13.5576 17.8574 13.897 18.3124 14.3975C18.7675 14.8981 19.0478 15.5327 19.1113 16.2062" stroke-width="1.5" stroke-linecap="round" stroke-linejoin="round"/>
    <path d="M22.298 19.7109C24.0012 18.1859 24.7504 16.5 24.7504 16.5C24.7504 16.5 22.2504 10.875 16.0004 10.875C15.4592 10.8743 14.9188 10.9182 14.3848 11.0063" stroke-width="1.5" stroke-linecap="round" stroke-linejoin="round"/>
    <path d="M11.7812 11.8594C8.59609 13.4719 7.25 16.5 7.25 16.5C7.25 16.5 9.75 22.125 16 22.125C17.4645 22.1365 18.9106 21.7991 20.2188 21.1406" stroke-width="1.5" stroke-linecap="round" stroke-linejoin="round"/>
</symbol><symbol viewBox="0 0 16 16" id="question" xmlns="http://www.w3.org/2000/svg">
    <path fill-rule="evenodd" clip-rule="evenodd" d="M8 13.5C11.0376 13.5 13.5 11.0376 13.5 8C13.5 4.96243 11.0376 2.5 8 2.5C4.96243 2.5 2.5 4.96243 2.5 8C2.5 11.0376 4.96243 13.5 8 13.5ZM8 15C11.866 15 15 11.866 15 8C15 4.13401 11.866 1 8 1C4.13401 1 1 4.13401 1 8C1 11.866 4.13401 15 8 15ZM6.4402 4.53943C6.87015 4.18627 7.43433 3.97488 8.00001 3.97488C9.2172 3.97488 10.3394 4.79517 10.3394 6.11564C10.3394 6.49181 10.2615 6.86012 10.0421 7.2159C9.83365 7.55385 9.52894 7.82883 9.1671 8.08232C8.94958 8.23471 8.84142 8.33911 8.7883 8.41033C8.74999 8.46169 8.75 8.48075 8.75001 8.49893C8.75001 8.91314 8.41422 9.24979 8.00001 9.24979C7.58579 9.24979 7.25001 8.914 7.25001 8.49979C7.25001 7.70507 7.79368 7.21302 8.30645 6.8538C8.58618 6.65783 8.7078 6.52182 8.76532 6.42854C8.81186 6.35308 8.83944 6.2699 8.83944 6.11564C8.83944 5.81644 8.59576 5.47488 8.00001 5.47488C7.79492 5.47488 7.5644 5.55717 7.39231 5.69852C7.22488 5.83606 7.16057 5.9853 7.16057 6.11564C7.16057 6.52985 6.82479 6.86564 6.41057 6.86564C5.99636 6.86564 5.66057 6.52985 5.66057 6.11564C5.66057 5.44255 6.00561 4.89641 6.4402 4.53943ZM8 12C8.55228 12 9 11.5523 9 11C9 10.4477 8.55228 10 8 10C7.44772 10 7 10.4477 7 11C7 11.5523 7.44772 12 8 12Z"/>
</symbol><symbol viewBox="0 0 16 16" id="rule" xmlns="http://www.w3.org/2000/svg">
    <path fill-rule="evenodd" clip-rule="evenodd" d="M7.38896 2.73142C7.4729 2.77715 7.5561 2.82501 7.63847 2.87501L8 3.09446L8.36153 2.87501C8.4439 2.82501 8.5271 2.77715 8.61104 2.73142C10.3767 1.76961 12.4746 1.75316 14.2594 2.70112C14.7133 2.94218 15 3.43495 15 3.97398V12.8354C15 13.4786 14.5092 14 13.9037 14H13.8655C13.6918 14 13.5213 13.9498 13.3723 13.8549C12.0609 13.019 10.4383 12.9529 9.07031 13.6794L8.88407 13.7783C8.82398 13.8102 8.76254 13.8388 8.7 13.8639C8.47685 13.9537 8.23971 14 8 14H7.89105C7.68766 14 7.48669 13.9565 7.3 13.8725C7.27076 13.8594 7.24187 13.8452 7.21338 13.8301L6.99592 13.7146C5.58671 12.9661 3.91519 13.0343 2.56418 13.8954C2.45675 13.9638 2.33382 14 2.20854 14H2.09633C1.49085 14 1 13.4786 1 12.8354V3.97398C1 3.43495 1.2867 2.94218 1.74058 2.70112C3.52543 1.75316 5.62331 1.76961 7.38896 2.73142ZM8.7 12.2215V4.38236L9.05612 4.1662C10.4539 3.31776 12.1561 3.2614 13.6 4.01372V12.2986C12.06 11.5179 10.2694 11.4857 8.7 12.2215ZM7.3 12.2258V4.38236L6.94388 4.1662C5.54609 3.31776 3.84395 3.2614 2.4 4.01372V12.3065C3.9438 11.5431 5.72687 11.5101 7.3 12.2258Z"/>
</symbol><symbol viewBox="0 0 24 24" id="search" xmlns="http://www.w3.org/2000/svg">
    <path fill-rule="evenodd" clip-rule="evenodd" d="M7.78182 10.9818C7.78182 13.8738 10.1262 16.2182 13.0182 16.2182C15.9101 16.2182 18.2545 13.8738 18.2545 10.9818C18.2545 8.08985 15.9101 5.74545 13.0182 5.74545C10.1262 5.74545 7.78182 8.08985 7.78182 10.9818ZM8.73689 16.4973C9.91916 17.4164 11.4048 17.9636 13.0182 17.9636C16.8741 17.9636 20 14.8378 20 10.9818C20 7.12587 16.8741 4 13.0182 4C9.16223 4 6.03636 7.12587 6.03636 10.9818C6.03636 12.5952 6.58364 14.0808 7.50267 15.2631L4.25562 18.5102C3.91479 18.851 3.91479 19.4036 4.25562 19.7444C4.59644 20.0852 5.14902 20.0852 5.48984 19.7444L8.73689 16.4973Z"/>
</symbol><symbol viewBox="0 0 16 16" id="setting" xmlns="http://www.w3.org/2000/svg">
    <path d="M8.00016 10.0002C9.10473 10.0002 10.0002 9.10473 10.0002 8.00016C10.0002 6.89559 9.10473 6.00016 8.00016 6.00016C6.89559 6.00016 6.00016 6.89559 6.00016 8.00016C6.00016 9.10473 6.89559 10.0002 8.00016 10.0002Z" stroke-width="1.5" stroke-linecap="round" stroke-linejoin="round"/>
    <path d="M12.485 9.81834C12.4043 10.0011 12.3803 10.2039 12.4159 10.4005C12.4516 10.5971 12.5453 10.7785 12.685 10.9214L12.7214 10.9577C12.8341 11.0703 12.9235 11.204 12.9845 11.3511C13.0455 11.4983 13.0769 11.656 13.0769 11.8153C13.0769 11.9746 13.0455 12.1323 12.9845 12.2795C12.9235 12.4266 12.8341 12.5603 12.7214 12.6729C12.6088 12.7856 12.4751 12.875 12.328 12.936C12.1808 12.997 12.0231 13.0284 11.8638 13.0284C11.7045 13.0284 11.5468 12.997 11.3996 12.936C11.2525 12.875 11.1188 12.7856 11.0062 12.6729L10.9699 12.6365C10.827 12.4968 10.6456 12.4031 10.449 12.3674C10.2524 12.3318 10.0496 12.3558 9.86683 12.4365C9.68757 12.5134 9.5347 12.6409 9.42702 12.8035C9.31933 12.9661 9.26155 13.1567 9.26077 13.3517V13.4547C9.26077 13.7762 9.13306 14.0845 8.90575 14.3118C8.67843 14.5391 8.37012 14.6668 8.04865 14.6668C7.72717 14.6668 7.41887 14.5391 7.19155 14.3118C6.96423 14.0845 6.83653 13.7762 6.83653 13.4547V13.4002C6.83183 13.1996 6.7669 13.005 6.65017 12.8418C6.53344 12.6786 6.37031 12.5543 6.18198 12.485C5.99918 12.4043 5.79641 12.3803 5.59981 12.4159C5.4032 12.4516 5.22179 12.5453 5.07895 12.685L5.04259 12.7214C4.93001 12.8341 4.79633 12.9235 4.64918 12.9845C4.50203 13.0455 4.3443 13.0769 4.18501 13.0769C4.02572 13.0769 3.86799 13.0455 3.72084 12.9845C3.57369 12.9235 3.44001 12.8341 3.32744 12.7214C3.21474 12.6088 3.12533 12.4751 3.06433 12.328C3.00333 12.1808 2.97194 12.0231 2.97194 11.8638C2.97194 11.7045 3.00333 11.5468 3.06433 11.3996C3.12533 11.2525 3.21474 11.1188 3.32744 11.0062L3.3638 10.9699C3.50352 10.827 3.59724 10.6456 3.63289 10.449C3.66854 10.2524 3.64447 10.0496 3.5638 9.86683C3.48697 9.68757 3.35941 9.5347 3.19681 9.42702C3.03421 9.31933 2.84367 9.26155 2.64865 9.26077H2.54562C2.22414 9.26077 1.91583 9.13306 1.68852 8.90575C1.4612 8.67843 1.3335 8.37012 1.3335 8.04865C1.3335 7.72717 1.4612 7.41887 1.68852 7.19155C1.91583 6.96423 2.22414 6.83653 2.54562 6.83653H2.60016C2.80077 6.83183 2.99532 6.7669 3.15853 6.65017C3.32173 6.53344 3.44605 6.37031 3.51531 6.18198C3.59599 5.99918 3.62006 5.79641 3.58441 5.59981C3.54876 5.4032 3.45503 5.22179 3.31531 5.07895L3.27895 5.04259C3.16625 4.93001 3.07685 4.79633 3.01585 4.64918C2.95485 4.50203 2.92345 4.3443 2.92345 4.18501C2.92345 4.02572 2.95485 3.86799 3.01585 3.72084C3.07685 3.57369 3.16625 3.44001 3.27895 3.32744C3.39152 3.21474 3.52521 3.12533 3.67236 3.06433C3.81951 3.00333 3.97723 2.97194 4.13653 2.97194C4.29582 2.97194 4.45355 3.00333 4.6007 3.06433C4.74785 3.12533 4.88153 3.21474 4.9941 3.32744L5.03047 3.3638C5.1733 3.50352 5.35472 3.59724 5.55132 3.63289C5.74792 3.66854 5.9507 3.64447 6.1335 3.5638H6.18198C6.36123 3.48697 6.51411 3.35941 6.62179 3.19681C6.72948 3.03421 6.78726 2.84367 6.78804 2.64865V2.54562C6.78804 2.22414 6.91575 1.91583 7.14306 1.68852C7.37038 1.4612 7.67869 1.3335 8.00016 1.3335C8.32164 1.3335 8.62994 1.4612 8.85726 1.68852C9.08458 1.91583 9.21228 2.22414 9.21228 2.54562V2.60016C9.21306 2.79518 9.27085 2.98572 9.37853 3.14832C9.48621 3.31092 9.63909 3.43849 9.81834 3.51531C10.0011 3.59599 10.2039 3.62006 10.4005 3.58441C10.5971 3.54876 10.7785 3.45503 10.9214 3.31531L10.9577 3.27895C11.0703 3.16625 11.204 3.07685 11.3511 3.01585C11.4983 2.95485 11.656 2.92345 11.8153 2.92345C11.9746 2.92345 12.1323 2.95485 12.2795 3.01585C12.4266 3.07685 12.5603 3.16625 12.6729 3.27895C12.7856 3.39152 12.875 3.52521 12.936 3.67236C12.997 3.81951 13.0284 3.97723 13.0284 4.13653C13.0284 4.29582 12.997 4.45355 12.936 4.6007C12.875 4.74785 12.7856 4.88153 12.6729 4.9941L12.6365 5.03047C12.4968 5.1733 12.4031 5.35472 12.3674 5.55132C12.3318 5.74792 12.3558 5.9507 12.4365 6.1335V6.18198C12.5134 6.36123 12.6409 6.51411 12.8035 6.62179C12.9661 6.72948 13.1567 6.78726 13.3517 6.78804H13.4547C13.7762 6.78804 14.0845 6.91575 14.3118 7.14306C14.5391 7.37038 14.6668 7.67869 14.6668 8.00016C14.6668 8.32164 14.5391 8.62994 14.3118 8.85726C14.0845 9.08458 13.7762 9.21228 13.4547 9.21228H13.4002C13.2051 9.21306 13.0146 9.27085 12.852 9.37853C12.6894 9.48621 12.5618 9.63909 12.485 9.81834Z" stroke-width="1.5" stroke-linecap="round" stroke-linejoin="round"/>
</symbol><symbol viewBox="0 0 32 32" id="tg" xmlns="http://www.w3.org/2000/svg">
    <path d="M15.9253 4.35556e-05C11.6948 0.0197862 7.64431 1.71421 4.65986 4.71265C1.67541 7.7111 -4.60654e-05 11.7695 9.49913e-10 16C9.49921e-10 20.2435 1.68571 24.3132 4.68629 27.3137C7.68687 30.3143 11.7565 32 16 32C20.2435 32 24.3131 30.3143 27.3137 27.3137C30.3143 24.3132 32 20.2435 32 16C32 11.7566 30.3143 7.68692 27.3137 4.68633C24.3131 1.68575 20.2435 4.35556e-05 16 4.35556e-05C15.9751 -1.45185e-05 15.9502 -1.45185e-05 15.9253 4.35556e-05ZM22.5413 9.63204C22.6747 9.62938 22.9693 9.66271 23.1613 9.81871C23.2889 9.9295 23.3703 10.0841 23.3893 10.252C23.4107 10.376 23.4373 10.66 23.416 10.8814C23.176 13.412 22.1333 19.5507 21.6027 22.384C21.3787 23.584 20.9373 23.9854 20.5093 24.024C19.5813 24.1107 18.876 23.4107 17.976 22.8214C16.568 21.8974 15.772 21.3227 14.4053 20.4214C12.8253 19.3814 13.8493 18.808 14.7493 17.8747C14.9853 17.6294 19.0787 13.9054 19.1587 13.568C19.168 13.5254 19.1773 13.368 19.084 13.2854C18.9907 13.2027 18.852 13.2307 18.752 13.2534C18.6107 13.2854 16.3613 14.7734 12.004 17.7134C11.364 18.1534 10.7867 18.3667 10.268 18.3534C9.69733 18.3427 8.59867 18.032 7.78133 17.7667C6.77867 17.44 5.98267 17.268 6.052 16.7147C6.088 16.4267 6.48533 16.132 7.24267 15.8307C11.9067 13.7987 15.016 12.4587 16.5733 11.812C21.016 9.96404 21.94 9.64271 22.5413 9.63204Z"/>
</symbol><symbol viewBox="0 0 17 16" id="user" xmlns="http://www.w3.org/2000/svg">
    <path d="M8.66602 10C10.8752 10 12.666 8.20914 12.666 6C12.666 3.79086 10.8752 2 8.66602 2C6.45688 2 4.66602 3.79086 4.66602 6C4.66602 8.20914 6.45688 10 8.66602 10Z" stroke-width="2" stroke-linecap="round" stroke-linejoin="round"/>
    <path d="M2.66602 13.5C3.87664 11.4081 6.07539 10 8.66602 10C11.2566 10 13.4554 11.4081 14.666 13.5" stroke-width="2" stroke-linecap="round" stroke-linejoin="round"/>
</symbol><symbol viewBox="0 0 14 14" id="user-btn" xmlns="http://www.w3.org/2000/svg">
    <path fill-rule="evenodd" clip-rule="evenodd" d="M9 3.5C9 4.60457 8.10457 5.5 7 5.5C5.89543 5.5 5 4.60457 5 3.5C5 2.39543 5.89543 1.5 7 1.5C8.10457 1.5 9 2.39543 9 3.5ZM10.5 3.5C10.5 5.433 8.933 7 7 7C5.067 7 3.5 5.433 3.5 3.5C3.5 1.567 5.067 0 7 0C8.933 0 10.5 1.567 10.5 3.5ZM1.5 11.5C1.5 11.2955 1.72027 10.6911 2.81956 10.0413C3.83752 9.43951 5.31979 9 7 9C8.68021 9 10.1625 9.43951 11.1804 10.0413C12.2797 10.6911 12.5 11.2955 12.5 11.5C12.5 12.0523 12.0523 12.5 11.5 12.5H2.5C1.94772 12.5 1.5 12.0523 1.5 11.5ZM7 7.5C3.15 7.5 0 9.5 0 11.5C0 12.8807 1.11929 14 2.5 14H11.5C12.8807 14 14 12.8807 14 11.5C14 9.5 10.85 7.5 7 7.5Z"/>
</symbol><symbol viewBox="0 0 32 32" id="vk" xmlns="http://www.w3.org/2000/svg">
    <g clip-path="url(#bdclip0_1635_13163)">
        <path d="M12.652 0.0052207L13.624 0.0012207H18.376L19.3493 0.0052207L20.568 0.018554L21.1453 0.0278874L21.7027 0.042554L22.24 0.0612207L22.7573 0.082554L23.256 0.110554L23.736 0.143887L24.196 0.183887L24.64 0.227887C26.96 0.489221 28.5507 1.04922 29.7507 2.24922C30.9507 3.44922 31.5107 5.03855 31.772 7.35989L31.8173 7.80389L31.856 8.26522L31.8893 8.74522L31.916 9.24255L31.9493 10.0266L31.9653 10.5732L31.9827 11.4319L31.9947 12.6519L32 13.9586L31.9987 18.3759L31.9947 19.3492L31.9813 20.5679L31.972 21.1452L31.9573 21.7026L31.9387 22.2399L31.9173 22.7572L31.8893 23.2559L31.856 23.7359L31.816 24.1959L31.772 24.6399C31.5107 26.9599 30.9507 28.5506 29.7507 29.7506C28.5507 30.9506 26.9613 31.5106 24.64 31.7719L24.196 31.8172L23.7347 31.8559L23.2547 31.8892L22.7573 31.9159L21.9733 31.9492L21.4267 31.9652L20.568 31.9826L19.348 31.9946L18.0413 31.9999L13.624 31.9986L12.6507 31.9946L11.432 31.9812L10.8547 31.9719L10.2973 31.9572L9.76 31.9386L9.24267 31.9172L8.744 31.8892L8.264 31.8559L7.804 31.8159L7.36 31.7719C5.04 31.5106 3.44933 30.9506 2.24933 29.7506C1.04933 28.5506 0.489333 26.9612 0.228 24.6399L0.182667 24.1959L0.144 23.7346L0.110667 23.2546L0.084 22.7572L0.0506667 21.9732L0.0346667 21.4266L0.0173333 20.5679L0.00533333 19.3479L0 18.0412L0.00133333 13.6239L0.00533333 12.6506L0.0186667 11.4319L0.028 10.8546L0.0426667 10.2972L0.0613333 9.75989L0.0826667 9.24255L0.110667 8.74389L0.144 8.26389L0.184 7.80389L0.228 7.35989C0.489333 5.03989 1.04933 3.44922 2.24933 2.24922C3.44933 1.04922 5.03867 0.489221 7.36 0.227887L7.804 0.182554L8.26533 0.143887L8.74533 0.110554L9.24267 0.0838874L10.0267 0.050554L10.5733 0.034554L11.432 0.0172207L12.652 0.0052207ZM9.05333 9.73322H5.4C5.57333 18.0532 9.73333 23.0532 17.0267 23.0532H17.44V18.2932C20.12 18.5599 22.1467 20.5199 22.96 23.0532H26.7467C25.7067 19.2666 22.9733 17.1732 21.2667 16.3732C22.9733 15.3866 25.3733 12.9866 25.9467 9.73322H22.5067C21.76 12.3732 19.5467 14.7732 17.44 14.9999V9.73322H14V18.9599C11.8667 18.4266 9.17333 15.8399 9.05333 9.73322Z"/>
    </g>
    <defs>
        <clipPath id="bdclip0_1635_13163">
            <rect width="32" height="32"/>
        </clipPath>
    </defs>
</symbol><symbol viewBox="0 0 32 24" id="youtube" xmlns="http://www.w3.org/2000/svg">
    <path d="M31.3307 3.74831C31.1499 3.02345 30.7934 2.36187 30.2968 1.82982C29.8003 1.29777 29.1811 0.913932 28.5013 0.716736C26.0067 1.69191e-07 16 0 16 0C16 0 5.99333 1.69191e-07 3.49733 0.716736C2.81788 0.91428 2.19906 1.29826 1.70277 1.83028C1.20648 2.36229 0.850122 3.02369 0.669333 3.74831C0 6.42224 0 12 0 12C0 12 0 17.5778 0.669333 20.2517C0.850115 20.9765 1.20663 21.6381 1.70319 22.1702C2.19974 22.7022 2.8189 23.0861 3.49867 23.2833C5.99333 24 16 24 16 24C16 24 26.0067 24 28.5027 23.2833C29.1825 23.0862 29.8017 22.7024 30.2983 22.1703C30.7949 21.6383 31.1513 20.9766 31.332 20.2517C32 17.5778 32 12 32 12C32 12 32 6.42224 31.3307 3.74831ZM12.7267 17.064V6.93601L21.0907 12L12.7267 17.064Z"/>
</symbol></svg>