<svg xmlns="http://www.w3.org/2000/svg" width="33" height="32" viewBox="0 0 33 32" fill="none">
    <g clip-path="url(#clip0_1295_15946)">
        <path d="M31.5956 21.7188C31.5962 21.7129 31.5962 21.7071 31.5956 21.7013L29.5469 11.18C29.5469 11.1725 29.5469 11.165 29.5469 11.1575C29.2306 9.43007 28.319 7.86809 26.9704 6.74314C25.6219 5.61818 23.9218 5.00139 22.1656 5H11.1519C9.39081 4.99932 7.6859 5.61962 6.33699 6.75179C4.98808 7.88395 4.08157 9.45549 3.77688 11.19L1.73813 21.7013C1.73753 21.7071 1.73753 21.7129 1.73813 21.7188C1.57218 22.661 1.71089 23.6317 2.13411 24.4898C2.55733 25.3479 3.24304 26.0487 4.09167 26.4906C4.94031 26.9325 5.90769 27.0924 6.85337 26.947C7.79906 26.8017 8.67381 26.3588 9.35063 25.6825L9.39438 25.6362L14.3556 20H18.9806L23.9444 25.6362C23.9581 25.6525 23.9731 25.6675 23.9881 25.6825C24.8316 26.5242 25.974 26.9979 27.1656 27C27.8225 26.9996 28.4713 26.8554 29.0664 26.5775C29.6616 26.2996 30.1887 25.8948 30.6108 25.3915C31.0329 24.8882 31.3396 24.2986 31.5095 23.6641C31.6795 23.0296 31.7084 22.3656 31.5944 21.7188H31.5956ZM13.6656 14H12.6656V15C12.6656 15.2652 12.5603 15.5196 12.3727 15.7071C12.1852 15.8946 11.9308 16 11.6656 16C11.4004 16 11.1461 15.8946 10.9585 15.7071C10.771 15.5196 10.6656 15.2652 10.6656 15V14H9.66563C9.40041 14 9.14606 13.8946 8.95852 13.7071C8.77099 13.5196 8.66563 13.2652 8.66563 13C8.66563 12.7348 8.77099 12.4804 8.95852 12.2929C9.14606 12.1054 9.40041 12 9.66563 12H10.6656V11C10.6656 10.7348 10.771 10.4804 10.9585 10.2929C11.1461 10.1054 11.4004 10 11.6656 10C11.9308 10 12.1852 10.1054 12.3727 10.2929C12.5603 10.4804 12.6656 10.7348 12.6656 11V12H13.6656C13.9308 12 14.1852 12.1054 14.3727 12.2929C14.5603 12.4804 14.6656 12.7348 14.6656 13C14.6656 13.2652 14.5603 13.5196 14.3727 13.7071C14.1852 13.8946 13.9308 14 13.6656 14ZM18.6656 13C18.6656 12.7348 18.771 12.4804 18.9585 12.2929C19.1461 12.1054 19.4004 12 19.6656 12H22.6656C22.9308 12 23.1852 12.1054 23.3727 12.2929C23.5603 12.4804 23.6656 12.7348 23.6656 13C23.6656 13.2652 23.5603 13.5196 23.3727 13.7071C23.1852 13.8946 22.9308 14 22.6656 14H19.6656C19.4004 14 19.1461 13.8946 18.9585 13.7071C18.771 13.5196 18.6656 13.2652 18.6656 13ZM29.2119 23.9338C29.0246 24.2034 28.7856 24.4332 28.5088 24.6098C28.232 24.7864 27.9229 24.9063 27.5994 24.9625C27.208 25.0309 26.806 25.0056 26.4264 24.8884C26.0468 24.7713 25.7004 24.5658 25.4156 24.2887L21.6406 20H22.1656C23.4423 20.0002 24.6979 19.6744 25.8135 19.0536C26.9291 18.4328 27.8678 17.5375 28.5406 16.4525L29.6331 22.0775C29.6888 22.3994 29.6802 22.7291 29.6079 23.0477C29.5356 23.3663 29.401 23.6674 29.2119 23.9338Z" fill="url(#paint0_linear_1295_15946)"/>
    </g>
    <defs>
        <linearGradient id="paint0_linear_1295_15946" x1="-2.49586" y1="3.26316" x2="39.2093" y2="15.7491" gradientUnits="userSpaceOnUse">
            <stop offset="1" stop-color="#00D283"/>
            <stop stop-color="#00C2E3"/>
        </linearGradient>
        <clipPath id="clip0_1295_15946">
            <rect width="32" height="32" fill="white" transform="translate(0.666016)"/>
        </clipPath>
    </defs>
</svg>