<svg xmlns="http://www.w3.org/2000/svg" width="7" height="11" viewBox="0 0 7 11" fill="none">
    <path d="M0.666064 11C0.600396 11.0001 0.535362 10.9871 0.474698 10.962C0.414033 10.9369 0.358934 10.9 0.312564 10.8535C0.266106 10.8071 0.22925 10.752 0.204104 10.6913C0.178958 10.6307 0.166016 10.5656 0.166016 10.5C0.166016 10.4343 0.178958 10.3693 0.204104 10.3086C0.22925 10.248 0.266106 10.1929 0.312564 10.1465L4.95906 5.49998L0.312564 0.853484C0.117189 0.658109 0.117189 0.341734 0.312564 0.146484C0.507939 -0.0487656 0.824314 -0.0488906 1.01956 0.146484L6.01956 5.14648C6.06602 5.19289 6.10288 5.24799 6.12802 5.30865C6.15317 5.3693 6.16611 5.43432 6.16611 5.49998C6.16611 5.56565 6.15317 5.63066 6.12802 5.69132C6.10288 5.75198 6.06602 5.80708 6.01956 5.85348L1.01956 10.8535C0.973195 10.9 0.918096 10.9369 0.857431 10.962C0.796766 10.9871 0.731732 11.0001 0.666064 11Z" fill="#555555"/>
</svg>