<svg xmlns="http://www.w3.org/2000/svg" width="24" height="24" viewBox="0 0 24 24" fill="none">
    <path fill-rule="evenodd" clip-rule="evenodd" d="M2 5.09091C2 4.48842 2.49746 4 3.11111 4H20.8889C21.5025 4 22 4.48842 22 5.09091C22 5.6934 21.5025 6.18182 20.8889 6.18182H3.11111C2.49746 6.18182 2 5.6934 2 5.09091ZM2 12C2 11.3975 2.49746 10.9091 3.11111 10.9091H20.8889C21.5025 10.9091 22 11.3975 22 12C22 12.6025 21.5025 13.0909 20.8889 13.0909H3.11111C2.49746 13.0909 2 12.6025 2 12ZM3.11111 17.8182C2.49746 17.8182 2 18.3066 2 18.9091C2 19.5116 2.49746 20 3.11111 20H20.8889C21.5025 20 22 19.5116 22 18.9091C22 18.3066 21.5025 17.8182 20.8889 17.8182H3.11111Z" fill="#959CAA"/>
</svg>