<svg width="17" height="16" viewBox="0 0 17 16" fill="none" xmlns="http://www.w3.org/2000/svg">
    <path fill-rule="evenodd" clip-rule="evenodd" d="M14.6888 3.76577C14.7553 3.82397 14.8095 3.89482 14.8484 3.97418C14.8873 4.05354 14.9099 4.13984 14.9152 4.22805C14.9204 4.31626 14.908 4.40463 14.8787 4.48801C14.8495 4.5714 14.804 4.64814 14.7448 4.71377L7.73546 12.4931C7.67601 12.559 7.604 12.6123 7.52366 12.65C7.44332 12.6877 7.35626 12.709 7.26759 12.7126C7.17892 12.7162 7.09043 12.702 7.0073 12.671C6.92416 12.6399 6.84806 12.5926 6.78346 12.5318L2.72746 8.71377C2.60578 8.59758 2.53211 8.43998 2.521 8.27211C2.50989 8.10424 2.56215 7.9383 2.66746 7.8071C2.72431 7.73597 2.79501 7.67713 2.87529 7.63416C2.95557 7.59119 3.04374 7.56498 3.13445 7.55712C3.22517 7.54927 3.31653 7.55993 3.403 7.58846C3.48947 7.61699 3.56924 7.6628 3.63746 7.7231L6.78413 10.5538C6.91552 10.672 7.08849 10.7333 7.26501 10.724C7.44153 10.7148 7.60716 10.6358 7.72546 10.5044L13.7541 3.81977C13.8715 3.68966 14.0353 3.61098 14.2103 3.60075C14.3852 3.59052 14.5571 3.64956 14.6888 3.7651V3.76577Z" fill="#151515"/>
</svg>
