<svg width="21" height="22" viewBox="0 0 21 22" fill="none" xmlns="http://www.w3.org/2000/svg">
    <path fill-rule="evenodd" clip-rule="evenodd" d="M18.8359 1.19305C19.2264 0.80252 19.8595 0.802511 20.2501 1.19303C20.6406 1.58355 20.6406 2.21671 20.2501 2.60724L11.8595 10.998L20.254 19.3928C20.6445 19.7833 20.6445 20.4165 20.254 20.807C19.8634 21.1975 19.2303 21.1975 18.8398 20.807L10.4453 12.4123L2.05087 20.807C1.66035 21.1975 1.02718 21.1975 0.636652 20.807C0.246123 20.4165 0.246115 19.7833 0.636633 19.3928L9.03112 10.998L0.640541 2.60724C0.250022 2.21671 0.25003 1.58355 0.64056 1.19303C1.03109 0.802511 1.66425 0.80252 2.05477 1.19305L10.4453 9.58381L18.8359 1.19305Z" fill="#ffffff"/>
</svg>
