<svg width="32" height="32" viewBox="0 0 32 32" fill="none" xmlns="http://www.w3.org/2000/svg">
    <path d="M12.1347 31.5879V20.9479H8.836V16.0586H12.1347V13.9519C12.1347 8.50526 14.5987 5.98126 19.9453 5.98126C20.48 5.98126 21.2187 6.03726 21.9027 6.11859C22.415 6.17131 22.9232 6.25817 23.424 6.37859V10.8119C23.1345 10.7849 22.8441 10.7689 22.5533 10.7639C22.2276 10.7555 21.9018 10.7515 21.576 10.7519C20.6333 10.7519 19.8973 10.8799 19.3427 11.1639C18.9698 11.351 18.6563 11.6382 18.4373 11.9933C18.0933 12.5533 17.9387 13.3199 17.9387 14.3293V16.0586H23.164L22.6493 18.8626L22.2667 20.9479H17.9387V31.9413C25.8613 30.9839 32 24.2386 32 16.0586C32 7.22259 24.836 0.0585938 16 0.0585938C7.164 0.0585938 0 7.22259 0 16.0586C0 23.5626 5.16533 29.8586 12.1347 31.5879Z" fill="#0866FF"/>
</svg>

