<svg width="43" height="42" viewBox="0 0 43 42" fill="none" xmlns="http://www.w3.org/2000/svg">
    <path d="M15.4274 35C11.1058 24.3773 20.237 20.4986 20.237 20.4986C19.5979 26.1671 23.9157 30.5831 23.9157 30.5831C25.5039 30.2255 28.5351 28.5551 28.5351 28.5551C28.5351 30.5831 26.9356 34.9972 26.9356 34.9972C26.9356 34.9972 32.5348 31.7677 34.2973 26.4036C36.0575 21.0394 30.9442 15.6543 30.9442 15.6543C31.252 19.4514 29.5309 23.1849 26.1575 26.0378C26.3267 25.8926 26.4678 25.7304 26.5766 25.556C27.1826 24.6518 28.1555 22.3019 27.5857 16.86C26.7842 9.22126 17.506 6 17.506 6C18.3055 10.6544 15.9076 11.7267 10.2904 20.5613C4.6732 29.3942 15.4274 35 15.4274 35Z" fill="url(#paint0_linear_650_956)"/>
    <defs>
        <linearGradient id="paint0_linear_650_956" x1="5.0548" y1="3.71052" x2="42.9784" y2="11.1771" gradientUnits="userSpaceOnUse">
            <stop stop-color="#F44336"/>
            <stop offset="1" stop-color="#FF4063"/>
        </linearGradient>
    </defs>
</svg>
