<svg width="43" height="42" viewBox="0 0 43 42" fill="none" xmlns="http://www.w3.org/2000/svg">
    <g clip-path="url(#clip0_650_982)">
        <path d="M36.5956 26.7188C36.5962 26.7129 36.5962 26.7071 36.5956 26.7013L34.5469 16.18C34.5469 16.1725 34.5469 16.165 34.5469 16.1575C34.2306 14.4301 33.319 12.8681 31.9704 11.7431C30.6219 10.6182 28.9218 10.0014 27.1656 10H16.1519C14.3908 9.99932 12.6859 10.6196 11.337 11.7518C9.98808 12.884 9.08157 14.4555 8.77688 16.19L6.73813 26.7013C6.73753 26.7071 6.73753 26.7129 6.73813 26.7188C6.57218 27.661 6.71089 28.6317 7.13411 29.4898C7.55733 30.3479 8.24304 31.0487 9.09167 31.4906C9.94031 31.9325 10.9077 32.0924 11.8534 31.947C12.7991 31.8017 13.6738 31.3588 14.3506 30.6825L14.3944 30.6362L19.3556 25H23.9806L28.9444 30.6362C28.9581 30.6525 28.9731 30.6675 28.9881 30.6825C29.8316 31.5242 30.974 31.9979 32.1656 32C32.8225 31.9996 33.4713 31.8554 34.0664 31.5775C34.6616 31.2996 35.1887 30.8948 35.6108 30.3915C36.0329 29.8882 36.3396 29.2986 36.5095 28.6641C36.6795 28.0296 36.7084 27.3656 36.5944 26.7188H36.5956ZM18.6656 19H17.6656V20C17.6656 20.2652 17.5603 20.5196 17.3727 20.7071C17.1852 20.8946 16.9308 21 16.6656 21C16.4004 21 16.1461 20.8946 15.9585 20.7071C15.771 20.5196 15.6656 20.2652 15.6656 20V19H14.6656C14.4004 19 14.1461 18.8946 13.9585 18.7071C13.771 18.5196 13.6656 18.2652 13.6656 18C13.6656 17.7348 13.771 17.4804 13.9585 17.2929C14.1461 17.1054 14.4004 17 14.6656 17H15.6656V16C15.6656 15.7348 15.771 15.4804 15.9585 15.2929C16.1461 15.1054 16.4004 15 16.6656 15C16.9308 15 17.1852 15.1054 17.3727 15.2929C17.5603 15.4804 17.6656 15.7348 17.6656 16V17H18.6656C18.9308 17 19.1852 17.1054 19.3727 17.2929C19.5603 17.4804 19.6656 17.7348 19.6656 18C19.6656 18.2652 19.5603 18.5196 19.3727 18.7071C19.1852 18.8946 18.9308 19 18.6656 19ZM23.6656 18C23.6656 17.7348 23.771 17.4804 23.9585 17.2929C24.1461 17.1054 24.4004 17 24.6656 17H27.6656C27.9308 17 28.1852 17.1054 28.3727 17.2929C28.5603 17.4804 28.6656 17.7348 28.6656 18C28.6656 18.2652 28.5603 18.5196 28.3727 18.7071C28.1852 18.8946 27.9308 19 27.6656 19H24.6656C24.4004 19 24.1461 18.8946 23.9585 18.7071C23.771 18.5196 23.6656 18.2652 23.6656 18ZM34.2119 28.9338C34.0246 29.2034 33.7856 29.4332 33.5088 29.6098C33.232 29.7864 32.9229 29.9063 32.5994 29.9625C32.208 30.0309 31.806 30.0056 31.4264 29.8884C31.0468 29.7713 30.7004 29.5658 30.4156 29.2887L26.6406 25H27.1656C28.4423 25.0002 29.6979 24.6744 30.8135 24.0536C31.9291 23.4328 32.8678 22.5375 33.5406 21.4525L34.6331 27.0775C34.6888 27.3994 34.6802 27.7291 34.6079 28.0477C34.5356 28.3663 34.401 28.6674 34.2119 28.9338Z" fill="url(#paint0_linear_650_982)"/>
    </g>
    <defs>
        <linearGradient id="paint0_linear_650_982" x1="2.50414" y1="8.26316" x2="44.2093" y2="20.7491" gradientUnits="userSpaceOnUse">
            <stop offset="1" stop-color="#00D283"/>
            <stop stop-color="#00C2E3"/>
        </linearGradient>
        <clipPath id="clip0_650_982">
            <rect width="32" height="32" fill="white" transform="translate(5.66602 5)"/>
        </clipPath>
    </defs>
</svg>
