<svg width="16" height="16" viewBox="0 0 16 16" fill="none" xmlns="http://www.w3.org/2000/svg">
    <path fill-rule="evenodd" clip-rule="evenodd" d="M3.0029 4.83013L7.22295 2.73466C7.46546 2.61424 7.73101 2.55172 8 2.55172C8.26899 2.55172 8.53454 2.61424 8.77705 2.73465L12.9971 4.83013C13.3045 4.98276 13.5 5.30421 13.5 5.65691V6.17241C13.5 9.18833 12.0145 11.9964 9.55893 13.6221L8.57312 14.2748C8.40203 14.3881 8.20314 14.4483 8 14.4483C7.79686 14.4483 7.59797 14.3881 7.42688 14.2748L6.44107 13.6221C3.98553 11.9964 2.5 9.18833 2.5 6.17241V5.65691C2.5 5.30421 2.69553 4.98276 3.0029 4.83013ZM6.57386 1.33574L2.3538 3.43122C1.52636 3.84209 1 4.70743 1 5.65691V6.17241C1 9.71744 2.74615 13.0181 5.63249 14.9291L6.6183 15.5818C7.03078 15.8549 7.51027 16 8 16C8.48973 16 8.96922 15.8549 9.3817 15.5818L10.3675 14.9291C13.2539 13.0181 15 9.71744 15 6.17241V5.65691C15 4.70743 14.4736 3.84209 13.6462 3.43122L9.42614 1.33574C8.98107 1.11474 8.49369 1 8 1C7.50631 1 7.01893 1.11474 6.57386 1.33574ZM11.1 6.63793C11.3485 6.29513 11.2814 5.80882 10.95 5.55172C10.6186 5.29463 10.1485 5.3641 9.9 5.7069L7.41885 9.12917L6.03033 7.69276C5.73744 7.38977 5.26256 7.38977 4.96967 7.69276C4.67678 7.99576 4.67678 8.487 4.96967 8.79L6.96967 10.859C7.12341 11.018 7.3363 11.1002 7.55317 11.0843C7.77004 11.0683 7.96955 10.9558 8.1 10.7759L11.1 6.63793Z" fill="#818DA6"/>
</svg>
