<svg width="16" height="16" viewBox="0 0 16 16" fill="none" xmlns="http://www.w3.org/2000/svg">
    <path fill-rule="evenodd" clip-rule="evenodd" d="M13.1231 8.55869L8.4103 13.2666C8.03474 13.6417 7.4267 13.6445 7.04777 13.2727L2.74141 9.04761C2.36017 8.67357 2.35452 8.06165 2.72879 7.68065L7.43993 2.88473C7.71293 2.60682 8.08633 2.45024 8.47611 2.45024H12.5804C13.1149 2.45024 13.5483 2.88311 13.5483 3.41707V7.53321C13.5483 7.91784 13.3953 8.28672 13.1231 8.55869ZM6.40376 1.86897C6.94976 1.31315 7.69656 1 8.47611 1H12.5804C13.9167 1 15 2.08216 15 3.41707V7.53321C15 8.30247 14.6941 9.04022 14.1496 9.58417L9.43684 14.2921C8.49795 15.23 6.97783 15.2368 6.03053 14.3074L1.72416 10.0823C0.77107 9.14718 0.756948 7.6174 1.69261 6.6649L6.40376 1.86897ZM10.6448 6.31756C9.97662 6.31756 9.43498 5.77648 9.43498 5.10903C9.43498 4.44157 9.97662 3.90049 10.6448 3.90049C11.3129 3.90049 11.8546 4.44157 11.8546 5.10903C11.8546 5.77648 11.3129 6.31756 10.6448 6.31756Z" fill="#818DA6"/>
</svg>
