<svg xmlns="http://www.w3.org/2000/svg" width="20" height="19" viewBox="0 0 20 19" fill="none">
    <path d="M17 17.3984H3C1.89543 17.3984 1 16.503 1 15.3984V6.39844C1 5.29387 1.89543 4.39844 3 4.39844H17C18.1046 4.39844 19 5.29387 19 6.39844V15.3984C19 16.503 18.1046 17.3984 17 17.3984Z" stroke="#255FE4" stroke-width="2"/>
    <path d="M14.5 11.3984C14.2239 11.3984 14 11.1745 14 10.8984C14 10.6223 14.2239 10.3984 14.5 10.3984C14.7761 10.3984 15 10.6223 15 10.8984C15 11.1745 14.7761 11.3984 14.5 11.3984Z" fill="#255FE4" stroke="#255FE4" stroke-width="1.5" stroke-linecap="round" stroke-linejoin="round"/>
    <path d="M16 4.39787V3.00109C16 1.68703 14.7544 0.730041 13.4847 1.06862L2.48467 4.00196C1.60917 4.23543 1 5.02833 1 5.93443V6.39787" stroke="#255FE4" stroke-width="2"/>
</svg>
