<svg width="20" height="20" viewBox="0 0 20 20" fill="none" xmlns="http://www.w3.org/2000/svg">
    <path fill-rule="evenodd" clip-rule="evenodd" d="M5.4903 14.2055L5.21232 17.5413C5.19815 17.7113 5.33234 17.8571 5.50297 17.8571C5.5744 17.8571 5.64335 17.8309 5.69674 17.7835L8.85308 14.9778L9.69505 14.9966C9.79607 14.9989 9.89772 15 10 15C12.4212 15 14.4097 14.3708 15.7433 13.3181C17.0134 12.3154 17.8571 10.8049 17.8571 8.57143C17.8571 6.33794 17.0134 4.82746 15.7433 3.82479C14.4097 2.77202 12.4212 2.14286 10 2.14286C7.57882 2.14286 5.59029 2.77202 4.25669 3.82479C2.98656 4.82746 2.14286 6.33794 2.14286 8.57143C2.14286 10.9253 3.0799 12.4892 4.49644 13.4978L5.4903 14.2055ZM7.12037 19.3851L9.64726 17.1389C9.76434 17.1416 9.88193 17.1429 10 17.1429C15.5228 17.1429 20 14.2857 20 8.57143C20 2.85714 15.5228 0 10 0C4.47715 0 0 2.85714 0 8.57143C0 11.5957 1.25408 13.8197 3.25353 15.2434L3.07687 17.3633C2.95859 18.7827 4.07868 20 5.50297 20C6.09922 20 6.67473 19.7812 7.12037 19.3851Z" fill="#818DA6"/>
</svg>
