<svg xmlns="http://www.w3.org/2000/svg" width="32" height="33" viewBox="0 0 32 33" fill="none">
    <path d="M9.75 9.625L22.25 23.375" stroke="#151515" stroke-width="1.5" stroke-linecap="round" stroke-linejoin="round"/>
    <path d="M18.1026 18.8125C17.4893 19.3701 16.6796 19.6612 15.8517 19.6218C15.0238 19.5824 14.2454 19.2157 13.6878 18.6023C13.1302 17.989 12.8391 17.1793 12.8785 16.3514C12.918 15.5235 13.2846 14.7451 13.898 14.1875" stroke="#151515" stroke-width="1.5" stroke-linecap="round" stroke-linejoin="round"/>
    <path d="M16.5879 13.4304C17.2523 13.5576 17.8574 13.897 18.3124 14.3975C18.7675 14.8981 19.0478 15.5327 19.1113 16.2062" stroke="#151515" stroke-width="1.5" stroke-linecap="round" stroke-linejoin="round"/>
    <path d="M22.298 19.7109C24.0012 18.1859 24.7504 16.5 24.7504 16.5C24.7504 16.5 22.2504 10.875 16.0004 10.875C15.4592 10.8743 14.9188 10.9182 14.3848 11.0063" stroke="#151515" stroke-width="1.5" stroke-linecap="round" stroke-linejoin="round"/>
    <path d="M11.7812 11.8594C8.59609 13.4719 7.25 16.5 7.25 16.5C7.25 16.5 9.75 22.125 16 22.125C17.4645 22.1365 18.9106 21.7991 20.2188 21.1406" stroke="#151515" stroke-width="1.5" stroke-linecap="round" stroke-linejoin="round"/>
</svg>