<svg width="16" height="16" viewBox="0 0 16 16" fill="none" xmlns="http://www.w3.org/2000/svg">
    <path fill-rule="evenodd" clip-rule="evenodd" d="M8 13.5C11.0376 13.5 13.5 11.0376 13.5 8C13.5 4.96243 11.0376 2.5 8 2.5C4.96243 2.5 2.5 4.96243 2.5 8C2.5 11.0376 4.96243 13.5 8 13.5ZM8 15C11.866 15 15 11.866 15 8C15 4.13401 11.866 1 8 1C4.13401 1 1 4.13401 1 8C1 11.866 4.13401 15 8 15ZM6.4402 4.53943C6.87015 4.18627 7.43433 3.97488 8.00001 3.97488C9.2172 3.97488 10.3394 4.79517 10.3394 6.11564C10.3394 6.49181 10.2615 6.86012 10.0421 7.2159C9.83365 7.55385 9.52894 7.82883 9.1671 8.08232C8.94958 8.23471 8.84142 8.33911 8.7883 8.41033C8.74999 8.46169 8.75 8.48075 8.75001 8.49893C8.75001 8.91314 8.41422 9.24979 8.00001 9.24979C7.58579 9.24979 7.25001 8.914 7.25001 8.49979C7.25001 7.70507 7.79368 7.21302 8.30645 6.8538C8.58618 6.65783 8.7078 6.52182 8.76532 6.42854C8.81186 6.35308 8.83944 6.2699 8.83944 6.11564C8.83944 5.81644 8.59576 5.47488 8.00001 5.47488C7.79492 5.47488 7.5644 5.55717 7.39231 5.69852C7.22488 5.83606 7.16057 5.9853 7.16057 6.11564C7.16057 6.52985 6.82479 6.86564 6.41057 6.86564C5.99636 6.86564 5.66057 6.52985 5.66057 6.11564C5.66057 5.44255 6.00561 4.89641 6.4402 4.53943ZM8 12C8.55228 12 9 11.5523 9 11C9 10.4477 8.55228 10 8 10C7.44772 10 7 10.4477 7 11C7 11.5523 7.44772 12 8 12Z" fill="#818DA6"/>
</svg>
