<svg width="16" height="16" viewBox="0 0 16 16" fill="none" xmlns="http://www.w3.org/2000/svg">
    <path fill-rule="evenodd" clip-rule="evenodd" d="M7.38896 2.73142C7.4729 2.77715 7.5561 2.82501 7.63847 2.87501L8 3.09446L8.36153 2.87501C8.4439 2.82501 8.5271 2.77715 8.61104 2.73142C10.3767 1.76961 12.4746 1.75316 14.2594 2.70112C14.7133 2.94218 15 3.43495 15 3.97398V12.8354C15 13.4786 14.5092 14 13.9037 14H13.8655C13.6918 14 13.5213 13.9498 13.3723 13.8549C12.0609 13.019 10.4383 12.9529 9.07031 13.6794L8.88407 13.7783C8.82398 13.8102 8.76254 13.8388 8.7 13.8639C8.47685 13.9537 8.23971 14 8 14H7.89105C7.68766 14 7.48669 13.9565 7.3 13.8725C7.27076 13.8594 7.24187 13.8452 7.21338 13.8301L6.99592 13.7146C5.58671 12.9661 3.91519 13.0343 2.56418 13.8954C2.45675 13.9638 2.33382 14 2.20854 14H2.09633C1.49085 14 1 13.4786 1 12.8354V3.97398C1 3.43495 1.2867 2.94218 1.74058 2.70112C3.52543 1.75316 5.62331 1.76961 7.38896 2.73142ZM8.7 12.2215V4.38236L9.05612 4.1662C10.4539 3.31776 12.1561 3.2614 13.6 4.01372V12.2986C12.06 11.5179 10.2694 11.4857 8.7 12.2215ZM7.3 12.2258V4.38236L6.94388 4.1662C5.54609 3.31776 3.84395 3.2614 2.4 4.01372V12.3065C3.9438 11.5431 5.72687 11.5101 7.3 12.2258Z" fill="#818DA6"/>
</svg>
