<svg width="24" height="24" viewBox="0 0 24 24" fill="none" xmlns="http://www.w3.org/2000/svg">
    <path fill-rule="evenodd" clip-rule="evenodd" d="M7.78182 10.9818C7.78182 13.8738 10.1262 16.2182 13.0182 16.2182C15.9101 16.2182 18.2545 13.8738 18.2545 10.9818C18.2545 8.08985 15.9101 5.74545 13.0182 5.74545C10.1262 5.74545 7.78182 8.08985 7.78182 10.9818ZM8.73689 16.4973C9.91916 17.4164 11.4048 17.9636 13.0182 17.9636C16.8741 17.9636 20 14.8378 20 10.9818C20 7.12587 16.8741 4 13.0182 4C9.16223 4 6.03636 7.12587 6.03636 10.9818C6.03636 12.5952 6.58364 14.0808 7.50267 15.2631L4.25562 18.5102C3.91479 18.851 3.91479 19.4036 4.25562 19.7444C4.59644 20.0852 5.14902 20.0852 5.48984 19.7444L8.73689 16.4973Z" fill="#818DA6"/>
</svg>
