<svg width="14" height="14" viewBox="0 0 14 14" fill="none" xmlns="http://www.w3.org/2000/svg">
    <path fill-rule="evenodd" clip-rule="evenodd" d="M9 3.5C9 4.60457 8.10457 5.5 7 5.5C5.89543 5.5 5 4.60457 5 3.5C5 2.39543 5.89543 1.5 7 1.5C8.10457 1.5 9 2.39543 9 3.5ZM10.5 3.5C10.5 5.433 8.933 7 7 7C5.067 7 3.5 5.433 3.5 3.5C3.5 1.567 5.067 0 7 0C8.933 0 10.5 1.567 10.5 3.5ZM1.5 11.5C1.5 11.2955 1.72027 10.6911 2.81956 10.0413C3.83752 9.43951 5.31979 9 7 9C8.68021 9 10.1625 9.43951 11.1804 10.0413C12.2797 10.6911 12.5 11.2955 12.5 11.5C12.5 12.0523 12.0523 12.5 11.5 12.5H2.5C1.94772 12.5 1.5 12.0523 1.5 11.5ZM7 7.5C3.15 7.5 0 9.5 0 11.5C0 12.8807 1.11929 14 2.5 14H11.5C12.8807 14 14 12.8807 14 11.5C14 9.5 10.85 7.5 7 7.5Z" fill="white"/>
</svg>

