<svg width="32" height="32" viewBox="0 0 32 32" fill="none" xmlns="http://www.w3.org/2000/svg">
    <g clip-path="url(#clip0_1635_13163)">
        <path d="M12.652 0.0052207L13.624 0.0012207H18.376L19.3493 0.0052207L20.568 0.018554L21.1453 0.0278874L21.7027 0.042554L22.24 0.0612207L22.7573 0.082554L23.256 0.110554L23.736 0.143887L24.196 0.183887L24.64 0.227887C26.96 0.489221 28.5507 1.04922 29.7507 2.24922C30.9507 3.44922 31.5107 5.03855 31.772 7.35989L31.8173 7.80389L31.856 8.26522L31.8893 8.74522L31.916 9.24255L31.9493 10.0266L31.9653 10.5732L31.9827 11.4319L31.9947 12.6519L32 13.9586L31.9987 18.3759L31.9947 19.3492L31.9813 20.5679L31.972 21.1452L31.9573 21.7026L31.9387 22.2399L31.9173 22.7572L31.8893 23.2559L31.856 23.7359L31.816 24.1959L31.772 24.6399C31.5107 26.9599 30.9507 28.5506 29.7507 29.7506C28.5507 30.9506 26.9613 31.5106 24.64 31.7719L24.196 31.8172L23.7347 31.8559L23.2547 31.8892L22.7573 31.9159L21.9733 31.9492L21.4267 31.9652L20.568 31.9826L19.348 31.9946L18.0413 31.9999L13.624 31.9986L12.6507 31.9946L11.432 31.9812L10.8547 31.9719L10.2973 31.9572L9.76 31.9386L9.24267 31.9172L8.744 31.8892L8.264 31.8559L7.804 31.8159L7.36 31.7719C5.04 31.5106 3.44933 30.9506 2.24933 29.7506C1.04933 28.5506 0.489333 26.9612 0.228 24.6399L0.182667 24.1959L0.144 23.7346L0.110667 23.2546L0.084 22.7572L0.0506667 21.9732L0.0346667 21.4266L0.0173333 20.5679L0.00533333 19.3479L0 18.0412L0.00133333 13.6239L0.00533333 12.6506L0.0186667 11.4319L0.028 10.8546L0.0426667 10.2972L0.0613333 9.75989L0.0826667 9.24255L0.110667 8.74389L0.144 8.26389L0.184 7.80389L0.228 7.35989C0.489333 5.03989 1.04933 3.44922 2.24933 2.24922C3.44933 1.04922 5.03867 0.489221 7.36 0.227887L7.804 0.182554L8.26533 0.143887L8.74533 0.110554L9.24267 0.0838874L10.0267 0.050554L10.5733 0.034554L11.432 0.0172207L12.652 0.0052207ZM9.05333 9.73322H5.4C5.57333 18.0532 9.73333 23.0532 17.0267 23.0532H17.44V18.2932C20.12 18.5599 22.1467 20.5199 22.96 23.0532H26.7467C25.7067 19.2666 22.9733 17.1732 21.2667 16.3732C22.9733 15.3866 25.3733 12.9866 25.9467 9.73322H22.5067C21.76 12.3732 19.5467 14.7732 17.44 14.9999V9.73322H14V18.9599C11.8667 18.4266 9.17333 15.8399 9.05333 9.73322Z" fill="#0077FF"/>
    </g>
    <defs>
        <clipPath id="clip0_1635_13163">
            <rect width="32" height="32" fill="white"/>
        </clipPath>
    </defs>
</svg>


